<svg
   xmlns:dc="http://purl.org/dc/elements/1.1/"
   xmlns:cc="http://creativecommons.org/ns#"
   xmlns:rdf="http://www.w3.org/1999/02/22-rdf-syntax-ns#"
   xmlns:svg="http://www.w3.org/2000/svg"
   xmlns="http://www.w3.org/2000/svg"
   xmlns:sodipodi="http://sodipodi.sourceforge.net/DTD/sodipodi-0.dtd"
   xmlns:inkscape="http://www.inkscape.org/namespaces/inkscape"
   version="1.0"
   width="168.53824pt"
   height="244.46478pt"
   viewBox="0 0 168.53824 244.46478"
   preserveAspectRatio="xMidYMid meet"
   id="svg26"
   sodipodi:docname="ben-filled.svg"
   inkscape:version="1.0 (4035a4f, 2020-05-01)">
  <metadata
     id="metadata32">
    <rdf:RDF>
      <cc:Work
         rdf:about="">
        <dc:format>image/svg+xml</dc:format>
        <dc:type
           rdf:resource="http://purl.org/dc/dcmitype/StillImage" />
        <dc:title></dc:title>
      </cc:Work>
    </rdf:RDF>
  </metadata>
  <defs
     id="defs30">
    <inkscape:path-effect
       fuse_tolerance="0"
       hide_knot="false"
       vertical_pattern="false"
       prop_units="false"
       tang_offset="0"
       normal_offset="0"
       spacing="0"
       scale_y_rel="false"
       prop_scale="1"
       copytype="single_stretched"
       pattern="M 0,5 C 0,2.24 2.24,0 5,0 7.76,0 10,2.24 10,5 10,7.76 7.76,10 5,10 2.24,10 0,7.76 0,5 Z"
       lpeversion="1"
       is_visible="true"
       id="path-effect880"
       effect="skeletal" />
    <inkscape:path-effect
       only_selected="false"
       apply_with_weight="true"
       apply_no_weight="true"
       helper_size="0"
       steps="2"
       weight="33.333333"
       lpeversion="1"
       is_visible="true"
       id="path-effect878"
       effect="bspline" />
    <inkscape:path-effect
       fuse_tolerance="0"
       hide_knot="false"
       vertical_pattern="false"
       prop_units="false"
       tang_offset="0"
       normal_offset="0"
       spacing="0"
       scale_y_rel="false"
       prop_scale="1"
       copytype="single_stretched"
       pattern="M 0,5 C 0,2.24 2.24,0 5,0 7.76,0 10,2.24 10,5 10,7.76 7.76,10 5,10 2.24,10 0,7.76 0,5 Z"
       lpeversion="1"
       is_visible="true"
       id="path-effect874"
       effect="skeletal" />
    <inkscape:path-effect
       only_selected="false"
       apply_with_weight="true"
       apply_no_weight="true"
       helper_size="0"
       steps="2"
       weight="33.333333"
       lpeversion="1"
       is_visible="true"
       id="path-effect872"
       effect="bspline" />
    <inkscape:path-effect
       fuse_tolerance="0"
       hide_knot="false"
       vertical_pattern="false"
       prop_units="false"
       tang_offset="0"
       normal_offset="0"
       spacing="0"
       scale_y_rel="false"
       prop_scale="1"
       copytype="single_stretched"
       pattern="M 0,5 C 0,2.24 2.24,0 5,0 7.76,0 10,2.24 10,5 10,7.76 7.76,10 5,10 2.24,10 0,7.76 0,5 Z"
       lpeversion="1"
       is_visible="true"
       id="path-effect868"
       effect="skeletal" />
    <inkscape:path-effect
       only_selected="false"
       apply_with_weight="true"
       apply_no_weight="true"
       helper_size="0"
       steps="2"
       weight="33.333333"
       lpeversion="1"
       is_visible="true"
       id="path-effect866"
       effect="bspline" />
    <inkscape:path-effect
       effect="skeletal"
       id="path-effect916"
       is_visible="true"
       lpeversion="1"
       pattern="M 0,5 C 0,2.24 2.24,0 5,0 7.76,0 10,2.24 10,5 10,7.76 7.76,10 5,10 2.24,10 0,7.76 0,5 Z"
       copytype="single_stretched"
       prop_scale="1"
       scale_y_rel="false"
       spacing="0"
       normal_offset="0"
       tang_offset="0"
       prop_units="false"
       vertical_pattern="false"
       hide_knot="false"
       fuse_tolerance="0" />
    <inkscape:path-effect
       effect="skeletal"
       id="path-effect910"
       is_visible="true"
       lpeversion="1"
       pattern="M 0,5 C 0,2.24 2.24,0 5,0 7.76,0 10,2.24 10,5 10,7.76 7.76,10 5,10 2.24,10 0,7.76 0,5 Z"
       copytype="single_stretched"
       prop_scale="1"
       scale_y_rel="false"
       spacing="0"
       normal_offset="0"
       tang_offset="0"
       prop_units="false"
       vertical_pattern="false"
       hide_knot="false"
       fuse_tolerance="0" />
    <inkscape:path-effect
       effect="skeletal"
       id="path-effect867"
       is_visible="true"
       lpeversion="1"
       pattern="M 0,5 C 0,2.24 2.24,0 5,0 7.76,0 10,2.24 10,5 10,7.76 7.76,10 5,10 2.24,10 0,7.76 0,5 Z"
       copytype="single_stretched"
       prop_scale="1"
       scale_y_rel="false"
       spacing="0"
       normal_offset="0"
       tang_offset="0"
       prop_units="false"
       vertical_pattern="false"
       hide_knot="false"
       fuse_tolerance="0" />
  </defs>
  <sodipodi:namedview
     inkscape:document-rotation="0"
     pagecolor="#ffffff"
     bordercolor="#666666"
     borderopacity="1"
     objecttolerance="10"
     gridtolerance="10"
     guidetolerance="10"
     inkscape:pageopacity="0"
     inkscape:pageshadow="2"
     inkscape:window-width="1234"
     inkscape:window-height="755"
     id="namedview28"
     showgrid="false"
     inkscape:snap-intersection-paths="false"
     inkscape:object-paths="false"
     inkscape:object-nodes="false"
     inkscape:snap-nodes="true"
     inkscape:snap-bbox="false"
     inkscape:zoom="1.3183001"
     inkscape:cx="62.217696"
     inkscape:cy="174.96762"
     inkscape:window-x="0"
     inkscape:window-y="23"
     inkscape:window-maximized="0"
     inkscape:current-layer="svg26" />
  <g
     transform="matrix(0.1,0,0,-0.1,-115.81378,362.5751)"
     fill="#000000"
     stroke="none"
     id="g24">
    <path
       d="m 1833,3616 c -184,-35 -314,-106 -389,-211 -16,-22 -58,-72 -95,-111 -76,-82 -131,-173 -168,-283 -24,-70 -26,-84 -20,-176 4,-55 10,-251 14,-435 3,-184 11,-371 16,-415 27,-214 172,-512 296,-610 81,-64 282,-162 368,-180 137,-29 324,-11 425,39 146,73 209,116 285,191 91,90 113,129 169,304 79,243 84,278 90,661 4,190 11,392 15,450 8,92 6,112 -11,164 -45,136 -132,272 -208,322 -22,15 -51,46 -65,69 -14,24 -44,60 -67,80 -53,45 -182,108 -268,129 -90,23 -296,29 -387,12 z m 612,-340 c 65,-30 156,-128 200,-215 56,-113 66,-161 69,-353 2,-125 7,-191 20,-238 27,-101 33,-351 12,-476 -34,-195 -111,-369 -207,-467 -48,-48 -63,-57 -92,-57 -23,0 -37,6 -41,16 -12,32 -5,112 20,227 17,77 24,129 20,152 -13,68 -107,145 -176,145 -16,0 -88,-22 -158,-49 -164,-62 -208,-72 -314,-69 -84,3 -87,2 -117,-27 -44,-41 -61,-107 -61,-239 0,-142 -4,-156 -42,-156 -107,0 -216,167 -303,465 -67,228 -69,422 -10,645 22,82 25,112 23,225 -2,100 2,140 14,173 28,75 81,153 153,225 l 69,70 9,-34 c 17,-69 96,-117 171,-106 17,2 44,-2 60,-10 72,-37 237,9 290,80 62,85 280,125 391,73 z M 2310,1915 c 35,-18 60,-62 60,-105 0,-16 -14,-92 -30,-167 -37,-162 -71,-234 -147,-303 -125,-114 -271,-104 -403,29 -82,83 -90,105 -90,261 v 132 l 14.9586,45.0414 c 30,29 48.0414,14.9586 103.0414,6.9586 115,-16 155,-7 306,67 106,52 139,58 186,34 z"
       id="path14"
       style="fill:#4e2f27;fill-opacity:1"
       sodipodi:nodetypes="ccccccccccccccccccccccccccscccscccssccccccccccccscccsccccc" />
    <path
       d="m 1555,2745 c -63,-24 -110,-77 -130,-145 l -7,-25 24,28 c 36,43 87,56 200,49 84,-4 98,-3 104,12 10,25 -3,60 -27,74 -33,21 -118,24 -164,7 z"
       id="path16"
       style="fill:#4e2f27;fill-opacity:1" />
    <path
       d="m 2293,2746 c -42,-19 -62,-58 -42,-82 11,-14 28,-16 102,-11 113,6 154,-4 191,-44 l 29,-33 -7,30 c -12,49 -54,102 -97,125 -54,27 -134,34 -176,15 z"
       id="path18"
       style="fill:#4e2f27;fill-opacity:1" />
    <path
       d="m 1541,2484 c -57,-48 -64,-155 -14,-214 61,-73 163,-10 163,100 0,48 -30,109 -61,125 -39,21 -53,19 -88,-11 z"
       id="path20"
       style="fill:#4e2f27;fill-opacity:1" />
    <path
       d="m 2369,2495 c -15,-8 -34,-30 -43,-49 -43,-92 3,-206 85,-206 29,0 42,6 58,26 51,65 47,167 -9,217 -34,30 -53,33 -91,12 z"
       id="path22"
       style="fill:#4e2f27;fill-opacity:1" />
    <path
       style="fill:none;fill-rule:evenodd;stroke:#000000;stroke-width:7.5px;stroke-linecap:butt;stroke-linejoin:miter;stroke-opacity:1"
       d="m 2019.3322,2212.6536 v 0"
       id="path918"
       inkscape:connector-curvature="0"
       inkscape:connector-type="polyline" />
    <path
       style="fill:#f2bbb1;fill-opacity:1;stroke:#f2bbb1;stroke-width:7.5px;stroke-linecap:butt;stroke-linejoin:miter;stroke-opacity:1"
       d="m 2264.804,1831.8906 c -9.647,-290.0978 -356.237,-215.95 -423.3077,-176.1991 155.6068,6.7275 369.1859,25.8874 423.3077,176.1991 z"
       id="path940"
       sodipodi:nodetypes="ccc" />
  </g>
  <g
     style="display:inline;opacity:0.98713826"
     inkscape:label="face"
     id="layer4"
     inkscape:groupmode="layer" />
  <path
     transform="scale(0.75000001)"
     id="path892"
     d="m 104.65653,313.51962 c -1.69088,-0.55309 -5.275045,-2.17088 -7.964806,-3.5951 -6.098048,-3.22887 -18.666335,-15.45013 -21.076004,-20.49407 -2.338966,-4.89594 -3.296563,-14.2985 -3.017584,-29.6294 0.343837,-18.89508 1.350906,-20.34215 12.755416,-18.32844 8.1714,1.44284 20.857748,1.03174 26.170068,-0.84804 2.08602,-0.73814 9.25434,-3.84481 15.9296,-6.90371 14.68857,-6.73094 18.23253,-7.74454 22.55264,-6.4502 4.50087,1.34849 7.16824,3.61662 9.31169,7.91799 2.40829,4.83279 2.3777,6.36936 -0.40946,20.57091 -2.93641,14.96197 -6.09229,25.6339 -9.95589,33.66689 -4.22167,8.77745 -12.87153,17.5697 -21.3964,21.74861 -5.40806,2.65103 -6.61375,2.94436 -12.8954,3.13733 -4.27617,0.13135 -8.10673,-0.1722 -10.00387,-0.79277 z m 18.70818,-45.56319 c 12.11344,-1.34152 21.61288,-9.83044 24.09581,-21.53256 1.60862,-7.58144 0.6246,-10.30378 -1.84401,-5.10157 -5.40784,11.39618 -21.64607,18.47841 -45.3789,19.79181 -4.222796,0.23369 -8.530842,0.60172 -9.57344,0.81784 l -1.89563,0.39294 1.89563,1.06709 c 5.306326,2.98705 20.64109,5.88368 27.30715,5.15814 1.04301,-0.11352 3.47003,-0.38068 5.39339,-0.59369 z"
     style="opacity:1;fill:#fff2d0;fill-opacity:1;stroke:#000000;stroke-width:0.758553;stroke-opacity:0" />
  <path
     transform="scale(0.75000001)"
     id="path894"
     d="m 51.597959,286.31937 c -3.96442,-1.3837 -9.91471,-6.39857 -13.933745,-11.74331 -4.977648,-6.61955 -11.921204,-20.66409 -16.429151,-33.2308 -13.4795406,-37.5766 -15.4474701,-64.84979 -7.1705,-99.37468 3.334758,-13.90995 3.765882,-17.77145 3.772073,-33.78586 0.0041,-10.675087 0.322308,-16.037471 1.137239,-19.166203 2.492973,-9.57117 9.575105,-20.351013 21.197345,-32.264863 l 8.392528,-8.603104 0.912118,3.145331 c 2.813348,9.701517 9.835206,14.480762 21.844462,14.867868 4.028479,0.129854 7.983026,0.709181 9.647182,1.413278 3.566926,1.509151 13.907394,1.568573 19.38137,0.111375 7.52983,-2.004477 13.57759,-5.431609 19.53432,-11.069677 6.18237,-5.851626 11.54267,-8.741556 20.08614,-10.829146 11.82046,-2.888321 23.58703,-2.327175 31.76111,1.514683 5.697,2.677614 18.23753,15.21057 23.13102,23.117033 4.32694,6.991101 8.4922,16.940526 10.02518,23.9468 0.66676,3.047349 1.55008,14.806145 2.17982,29.017945 0.80187,18.09624 1.42917,25.55102 2.58511,30.72138 3.75101,16.77773 4.19867,50.92339 0.88508,67.51118 -4.64695,23.26255 -14.53758,44.66523 -26.5994,57.55936 -6.88823,7.36353 -11.88346,9.57071 -15.6653,6.9218 -3.20361,-2.24389 -2.93329,-10.52984 0.97763,-29.96701 4.31169,-21.42906 3.94493,-24.58136 -3.75057,-32.23602 -6.21184,-6.17888 -10.74769,-8.36547 -17.1856,-8.28465 -4.16942,0.0523 -7.61832,1.02561 -22.34075,6.30447 -22.48798,8.06329 -24.91198,8.62301 -38.34346,8.85377 -6.049458,0.10394 -11.766065,0.22075 -12.703572,0.25958 -2.233293,0.0925 -7.498288,4.89391 -9.353001,8.52945 -2.95864,5.79941 -3.799847,11.20995 -4.366998,28.08796 -0.48859,14.54007 -0.717253,16.62709 -1.973861,18.01563 -1.537392,1.6988 -4.032582,1.91335 -7.633819,0.65643 z m 8.881642,-101.5218 c 6.066232,-1.68478 10.417332,-8.58708 10.444791,-16.56892 0.02889,-8.39734 -3.080996,-14.84657 -8.7394,-18.12364 -3.658068,-2.11857 -6.837566,-1.84023 -10.449557,0.91476 -10.146929,7.73945 -9.377449,28.27282 1.240162,33.09337 3.723344,1.69045 3.842577,1.70132 7.504004,0.68443 z m 112.168449,-0.75994 c 2.27255,-1.21623 5.16141,-6.33024 6.4772,-11.46622 2.03559,-7.94572 -0.0344,-15.48249 -5.63894,-20.53076 -3.76514,-3.39147 -5.99522,-4.06096 -9.58299,-2.87689 -8.9705,2.96054 -13.39454,16.69349 -8.76973,27.22271 2.49512,5.68056 6.39717,8.44233 11.92805,8.44233 2.25946,0 4.77334,-0.35603 5.58641,-0.79117 z M 46.693559,131.41334 c 3.026689,-0.89884 7.440985,-1.20033 17.574459,-1.20033 H 77.80055 l 0.8376,-1.83833 c 2.134982,-4.68578 -1.594305,-10.28104 -7.903405,-11.85794 -5.206294,-1.30126 -15.275513,-0.59449 -19.706278,1.3832 -7.365683,3.28771 -14.137205,11.77406 -16.180334,20.27787 -0.530869,2.20956 -0.425476,2.1618 3.628373,-1.64424 2.967252,-2.78587 5.344464,-4.26717 8.217053,-5.12023 z m 141.441081,4.85748 c -1.4113,-5.34997 -4.2551,-9.86373 -8.7744,-13.92697 -11.32655,-10.18354 -34.83958,-8.19396 -34.83958,2.94798 0,4.22506 0.98145,4.50311 17.37039,4.92118 14.46136,0.3689 14.96341,0.43531 18.35252,2.42771 1.91643,1.12663 4.40858,3.26006 5.53811,4.74095 1.12952,1.48089 2.34677,2.69252 2.70498,2.69252 0.35821,0 0.1998,-1.71152 -0.35202,-3.80337 z"
     style="opacity:1;fill:#fff2d0;fill-opacity:1;stroke:#000000;stroke-width:0.758553;stroke-opacity:0" />
</svg>
